<?xml version="1.0" ?><!DOCTYPE svg  PUBLIC '-//W3C//DTD SVG 1.0//EN'  'http://www.w3.org/TR/2001/REC-SVG-20010904/DTD/svg10.dtd'><svg xmlns="http://www.w3.org/2000/svg" xmlns:xlink="http://www.w3.org/1999/xlink" version="1.0" id="Layer_1" width="100px" height="100px" viewBox="0 0 100 100" enable-background="new 0 0 100 100" xml:space="preserve"><polygon points="70,15 70,10 53.333,10 53.333,15 50,20 73.333,20 "/><path d="M85,35v5h-5V26.666c0-1.832-1.501-3.332-3.333-3.332H46.666c-1.832,0-3.332,1.5-3.332,3.332v16.668h3.604l2.386,7.154  C52.995,53.994,55,58.503,55,63.333c0,6.494-3.398,12.621-9.078,16.696c0.43,1.536,0.998,2.907,1.691,4.05l0.721,1.194V90h28.333  C78.499,90,80,88.499,80,86.667V73.333h5v5l5-1.666V36.666L85,35z M61.667,43.334l-8.334-5l8.334-5l8.333,5L61.667,43.334z   M80,68.333V45h5v23.333H80z"/><path d="M50,63.333c0-3.912-1.908-7.447-5-10l-1.666-4.999H28.135l-1.533-5.73c0.756-0.992,1.117-2.271,0.768-3.57  c-0.367-1.363-1.396-2.32-2.633-2.77C22.25,28.428,18.623,21.256,14.029,15L10,17.963c4.418,6.008,7.715,12.672,9.975,19.791  c-0.682,0.971-0.986,2.197-0.654,3.438c0.348,1.299,1.299,2.227,2.451,2.705l1.188,4.438h-6.293L15,53.333c-3.09,2.553-5,6.088-5,10  c0,6.055,3.883,11.335,9.678,14.255c-0.465,3.323-1.445,6.491-3.012,9.079V90h26.668v-3.333c-1.563-2.588-2.547-5.756-3.008-9.079  C46.117,74.668,50,69.385,50,63.333z"/></svg>